<?xml version="1.0" standalone="no"?>
<!DOCTYPE svg PUBLIC "-//W3C//DTD SVG 20010904//EN"
 "http://www.w3.org/TR/2001/REC-SVG-20010904/DTD/svg10.dtd">
<svg version="1.0" xmlns="http://www.w3.org/2000/svg"
 width="700.000000pt" height="700.000000pt" viewBox="0 0 700.000000 700.000000"
 preserveAspectRatio="xMidYMid meet">
<metadata>
Created by potrace 1.11, written by Peter Selinger 2001-2013
</metadata>
<g transform="translate(0.000000,700.000000) scale(0.100000,-0.100000)"
fill="#000000" stroke="none">
<path d="M3298 6995 c-2 -1 -41 -5 -88 -9 -100 -7 -225 -22 -295 -36 -27 -5
-63 -12 -80 -15 -68 -11 -94 -17 -170 -37 -44 -11 -84 -21 -90 -22 -54 -13
-274 -85 -320 -105 -11 -5 -51 -21 -89 -36 -101 -38 -285 -129 -421 -208 -528
-306 -980 -760 -1282 -1288 -47 -81 -173 -332 -173 -343 0 -3 -11 -29 -24 -58
-72 -159 -162 -461 -201 -673 -10 -49 -18 -97 -20 -105 -2 -9 -6 -43 -10 -75
-4 -33 -9 -69 -11 -80 -19 -99 -26 -568 -11 -715 9 -82 25 -207 33 -255 3 -16
7 -39 9 -50 14 -99 79 -357 122 -484 82 -243 190 -481 307 -675 36 -60 66
-111 66 -113 0 -2 4 -9 10 -16 5 -7 46 -64 91 -126 72 -103 180 -240 234 -297
176 -188 287 -292 458 -430 268 -216 661 -431 1012 -551 225 -77 495 -142 668
-159 34 -3 65 -8 68 -9 29 -18 532 -26 709 -12 104 9 111 9 285 37 703 114
1380 464 1894 981 53 53 118 123 186 200 46 51 187 237 242 320 194 289 330
579 452 964 34 105 96 400 107 506 3 35 8 67 10 70 9 17 19 214 18 399 0 246
-12 422 -39 570 -2 8 -10 56 -20 105 -111 605 -415 1213 -836 1679 -63 70
-266 268 -319 311 -25 21 -64 54 -88 74 -76 63 -278 204 -384 268 -343 204
-710 349 -1085 428 -100 20 -248 43 -393 60 -56 7 -526 16 -532 10z m376 -879
c138 -12 320 -53 531 -119 55 -17 102 -32 104 -34 2 -2 -61 -67 -140 -145
-110 -109 -152 -157 -173 -200 -52 -110 -45 -171 28 -213 22 -13 102 -44 176
-69 183 -61 242 -89 295 -142 71 -71 89 -166 51 -259 -7 -16 -41 -65 -75 -108
-132 -166 -137 -217 -31 -348 79 -97 92 -137 76 -229 -17 -95 -94 -225 -251
-420 -276 -343 -344 -450 -373 -585 -9 -42 -8 -141 3 -212 3 -24 7 -46 7 -50
4 -34 53 -152 83 -198 77 -121 180 -208 325 -278 67 -32 202 -79 262 -91 13
-3 34 -7 48 -10 150 -33 249 -44 475 -51 203 -6 256 -11 328 -30 74 -19 104
-35 144 -77 46 -48 66 -101 69 -192 l4 -80 -42 -55 c-488 -652 -1267 -1043
-2078 -1045 -149 0 -288 9 -353 23 -23 5 -60 12 -82 16 -104 15 -412 106 -513
151 -1 0 5 17 13 37 79 190 -3 534 -207 861 -113 182 -300 392 -423 476 -27
19 -71 51 -97 71 -83 65 -213 100 -418 113 -240 16 -374 36 -396 59 -35 36
-146 468 -160 617 -3 36 -7 75 -9 86 -5 32 34 81 79 99 78 32 158 -3 328 -142
133 -109 192 -145 231 -141 70 7 54 58 -188 583 -69 151 -140 358 -160 470
-35 196 43 337 179 322 28 -3 100 -27 160 -52 119 -52 152 -57 173 -29 15 20
16 105 2 159 -37 141 -33 232 12 289 38 48 91 61 300 71 58 3 116 8 130 10 13
3 37 8 53 11 55 10 154 65 214 120 152 137 150 301 -6 401 -31 21 -48 34 -106
84 -105 91 -111 98 -101 108 19 19 261 140 371 185 142 58 309 108 465 140
137 28 168 32 314 42 55 4 101 7 102 8 5 4 177 -2 247 -8z m1856 -953 c0 -5
12 -21 26 -38 42 -48 167 -243 216 -335 94 -177 138 -279 124 -292 -7 -7 -47
-53 -89 -103 -80 -93 -151 -145 -198 -145 -58 0 -90 37 -165 190 -51 103 -79
150 -99 161 -39 24 -100 32 -275 34 -196 2 -253 10 -289 41 -27 22 -30 35 -23
91 3 25 75 93 140 134 120 77 284 150 497 225 133 47 135 47 135 37z"/>
</g>
</svg>
